<svg  viewBox="0 0 24 24" fill="none" xmlns="http://www.w3.org/2000/svg">
<path d="M17.25 15.5H16.75V15.6046L16.7919 15.7004L17.25 15.5ZM19 17H19.5V16.6554L19.178 16.5328L19 17ZM19 18V18.5H19.5V18H19ZM5 18H4.5V18.5H5V18ZM5 17L4.822 16.5328L4.5 16.6554V17H5ZM6.75 15.5L7.20808 15.7004L7.25 15.6046V15.5H6.75ZM12 4.5C8.82436 4.5 6.25 7.07436 6.25 10.25H7.25C7.25 7.62665 9.37665 5.5 12 5.5V4.5ZM17.75 10.25C17.75 7.07436 15.1756 4.5 12 4.5V5.5C14.6234 5.5 16.75 7.62665 16.75 10.25H17.75ZM17.75 15.5V10.25H16.75V15.5H17.75ZM19.178 16.5328C18.264 16.1846 17.8049 15.5208 17.7081 15.2996L16.7919 15.7004C16.9868 16.1459 17.636 17.0154 18.822 17.4672L19.178 16.5328ZM19.5 18V17H18.5V18H19.5ZM17.25 18.5H19V17.5H17.25V18.5ZM6.75 18.5H17.25V17.5H6.75V18.5ZM5 18.5H6.75V17.5H5V18.5ZM4.5 17V18H5.5V17H4.5ZM6.29192 15.2996C6.19514 15.5208 5.73601 16.1846 4.822 16.5328L5.178 17.4672C6.36399 17.0154 7.0132 16.1459 7.20808 15.7004L6.29192 15.2996ZM6.25 10.25V15.5H7.25V10.25H6.25Z" fill="black"/>
<path d="M14 5H10C10 4.33333 10.4 3 12 3C13.6 3 14 4.33333 14 5Z" fill="black"/>
<path d="M14 19H10C10 19.6667 10.4 21 12 21C13.6 21 14 19.6667 14 19Z" fill="black"/>
</svg>
