<svg  viewBox="0 0 24 24" fill="none" xmlns="http://www.w3.org/2000/svg">
<path d="M14.2005 7.89824L14.0754 8.5H14.69H21C21.8239 8.5 22.5 9.17614 22.5 10V12C22.5 12.1905 22.4644 12.3667 22.3971 12.5409L19.3804 19.5831L19.3804 19.5831L19.3785 19.5877C19.1544 20.1254 18.6238 20.5 18 20.5H9C8.17614 20.5 7.5 19.8239 7.5 19V9C7.5 8.5861 7.66462 8.21501 7.93868 7.94836L7.93871 7.9484L7.94382 7.94328L14.1719 1.7057L14.8764 2.40355C14.8767 2.40383 14.877 2.4041 14.8773 2.40437C15.0525 2.58002 15.1641 2.82566 15.1698 3.08902L15.1448 3.35555L14.2005 7.89824ZM4.5 9.5V20.5H1.5V9.5H4.5Z" stroke="black"/>
</svg>
