<svg viewBox="0 0 24 24" fill="none" xmlns="http://www.w3.org/2000/svg">
<path d="M9.79954 16.1018L9.92463 15.5L9.31 15.5L3 15.5C2.17614 15.5 1.5 14.8239 1.5 14L1.5 12C1.5 11.8095 1.53565 11.6333 1.60293 11.4591L4.61961 4.41688L4.61963 4.41689L4.62154 4.4123C4.84558 3.87461 5.37617 3.5 6 3.5L15 3.5C15.8239 3.5 16.5 4.17614 16.5 5L16.5 15C16.5 15.4139 16.3354 15.785 16.0613 16.0516L16.0613 16.0516L16.0562 16.0567L9.82806 22.2943L9.12355 21.5964C9.12328 21.5962 9.12301 21.5959 9.12274 21.5956C8.94751 21.42 8.83587 21.1743 8.83023 20.911L8.85521 20.6444L9.79954 16.1018ZM19.5 14.5L19.5 3.5L22.5 3.5L22.5 14.5L19.5 14.5Z" stroke="black"/>
</svg>
