<svg  viewBox="0 0 86 18" fill="none" xmlns="http://www.w3.org/2000/svg">
<path d="M32.457 14V3.6875H35.1816C35.752 3.6875 36.2031 3.81445 36.5352 4.06836C36.8711 4.32227 37.1113 4.68359 37.2559 5.15234C37.4004 5.62109 37.4727 6.17969 37.4727 6.82812C37.4727 7.45312 37.4121 7.99805 37.291 8.46289C37.1699 8.92383 36.9531 9.28125 36.6406 9.53516C36.332 9.78906 35.8926 9.91602 35.3223 9.91602H34.4844V14H32.457ZM34.4844 8.06445H34.6016C34.9844 8.06445 35.2188 7.95703 35.3047 7.74219C35.3906 7.52734 35.4336 7.21094 35.4336 6.79297C35.4336 6.40234 35.3906 6.10156 35.3047 5.89062C35.2227 5.67578 35.0254 5.56836 34.7129 5.56836H34.4844V8.06445Z" fill="black"/>
<path d="M38.0938 14V3.6875H40.2266V14H38.0938Z" fill="black"/>
<path d="M42.6699 14.0938C42.1816 14.0938 41.8086 13.9805 41.5508 13.7539C41.2969 13.5273 41.123 13.2168 41.0293 12.8223C40.9355 12.4277 40.8887 11.9805 40.8887 11.4805C40.8887 10.9453 40.9414 10.5078 41.0469 10.168C41.1523 9.82422 41.332 9.54297 41.5859 9.32422C41.8438 9.10547 42.1973 8.91992 42.6465 8.76758L43.9473 8.32227V7.41992C43.9473 6.94727 43.793 6.71094 43.4844 6.71094C43.2031 6.71094 43.0625 6.90234 43.0625 7.28516V7.8125H41.0234C41.0195 7.78125 41.0176 7.74219 41.0176 7.69531C41.0176 7.64453 41.0176 7.58789 41.0176 7.52539C41.0176 6.65039 41.2227 6.03125 41.6328 5.66797C42.0469 5.30078 42.7012 5.11719 43.5957 5.11719C44.0645 5.11719 44.4844 5.20117 44.8555 5.36914C45.2266 5.5332 45.5195 5.77734 45.7344 6.10156C45.9531 6.42578 46.0625 6.82617 46.0625 7.30273V14H43.9766V12.957C43.875 13.3242 43.707 13.6055 43.4727 13.8008C43.2383 13.9961 42.9707 14.0938 42.6699 14.0938ZM43.4961 12.4648C43.668 12.4648 43.7852 12.3926 43.8477 12.248C43.9102 12.1035 43.9414 11.9473 43.9414 11.7793V9.33008C43.6523 9.44727 43.4277 9.5957 43.2676 9.77539C43.1074 9.95117 43.0273 10.2109 43.0273 10.5547V11.6855C43.0273 12.2051 43.1836 12.4648 43.4961 12.4648Z" fill="black"/>
<path d="M46.7012 15.4648V14.1348H47.709C47.8613 14.1348 47.9375 14.082 47.9375 13.9766C47.9375 13.9219 47.9316 13.8652 47.9199 13.8066L46.543 5.21094H48.5527L49.1387 11.6797L49.8301 5.21094H51.8516L50.2227 14.457C50.1641 14.7891 50.0508 15.0391 49.8828 15.207C49.7188 15.3789 49.4473 15.4648 49.0684 15.4648H46.7012Z" fill="black"/>
<path d="M54.5645 14.0938C53.0918 14.0938 52.3555 13.0391 52.3555 10.9297V6.48242C52.3555 4.55664 53.1992 3.59375 54.8867 3.59375C55.582 3.59375 56.1152 3.73438 56.4863 4.01562C56.8574 4.29297 57.1133 4.69922 57.2539 5.23438C57.3945 5.76953 57.4648 6.42188 57.4648 7.19141H55.4492V6.27734C55.4492 6.05469 55.418 5.86914 55.3555 5.7207C55.2969 5.56836 55.1719 5.49219 54.9805 5.49219C54.7422 5.49219 54.584 5.57227 54.5059 5.73242C54.4316 5.89258 54.3945 6.06836 54.3945 6.25977V11.2578C54.3945 11.5352 54.4297 11.7617 54.5 11.9375C54.5742 12.1094 54.7168 12.1953 54.9277 12.1953C55.1465 12.1953 55.291 12.1094 55.3613 11.9375C55.4355 11.7617 55.4727 11.5312 55.4727 11.2461V9.77539H54.9219V7.99414H57.4414V14H56.6152L56.2637 13.1328C55.9043 13.7734 55.3379 14.0938 54.5645 14.0938Z" fill="black"/>
<path d="M58.2266 14V5.21094H60.3594V6.18945C60.4609 5.84961 60.6406 5.58398 60.8984 5.39258C61.1562 5.20117 61.4805 5.10547 61.8711 5.10547V6.85742C61.6992 6.85742 61.4941 6.87695 61.2559 6.91602C61.0176 6.95117 60.8086 7.00195 60.6289 7.06836C60.4492 7.13086 60.3594 7.20117 60.3594 7.2793V14H58.2266Z" fill="black"/>
<path d="M64.9414 14.0938C63.1914 14.0938 62.3164 13.1855 62.3164 11.3691V7.8418C62.3164 7.01367 62.5488 6.35352 63.0137 5.86133C63.4785 5.36523 64.1211 5.11719 64.9414 5.11719C65.7656 5.11719 66.4102 5.36523 66.875 5.86133C67.3398 6.35352 67.5723 7.01367 67.5723 7.8418V11.3691C67.5723 13.1855 66.6953 14.0938 64.9414 14.0938ZM64.9414 12.4766C65.1172 12.4766 65.2422 12.4141 65.3164 12.2891C65.3945 12.1602 65.4336 11.998 65.4336 11.8027V7.50781C65.4336 6.99609 65.2695 6.74023 64.9414 6.74023C64.6133 6.74023 64.4492 6.99609 64.4492 7.50781V11.8027C64.4492 11.998 64.4863 12.1602 64.5605 12.2891C64.6387 12.4141 64.7656 12.4766 64.9414 12.4766Z" fill="black"/>
<path d="M70.0449 14.0938C69.5762 14.0938 69.2168 13.9961 68.9668 13.8008C68.7207 13.6055 68.5527 13.334 68.4629 12.9863C68.373 12.6348 68.3281 12.2246 68.3281 11.7559V5.21094H70.4375V11.5098C70.4375 11.8613 70.4648 12.1074 70.5195 12.248C70.5742 12.3848 70.7031 12.4531 70.9062 12.4531C71.125 12.4531 71.2617 12.3555 71.3164 12.1602C71.375 11.9648 71.4043 11.7129 71.4043 11.4043V5.21094H73.4961V14H71.3984V13.0625C71.2656 13.3984 71.1055 13.6543 70.918 13.8301C70.7344 14.0059 70.4434 14.0938 70.0449 14.0938Z" fill="black"/>
<path d="M74.3398 14V5.21094H76.4375V6.33008C76.5156 5.99414 76.6602 5.70898 76.8711 5.47461C77.0859 5.23633 77.3828 5.11719 77.7617 5.11719C78.3711 5.11719 78.8125 5.30469 79.0859 5.67969C79.3633 6.05469 79.502 6.56836 79.502 7.2207V14H77.4336V7.4375C77.4336 7.26562 77.3984 7.10742 77.3281 6.96289C77.2578 6.81445 77.1367 6.74023 76.9648 6.74023C76.8047 6.74023 76.6855 6.79688 76.6074 6.91016C76.5332 7.01953 76.4863 7.1582 76.4668 7.32617C76.4473 7.49023 76.4375 7.6543 76.4375 7.81836V14H74.3398Z" fill="black"/>
<path d="M82.0566 14.0938C81.6504 14.0938 81.3281 14.0195 81.0898 13.8711C80.8516 13.7227 80.6738 13.5176 80.5566 13.2559C80.4395 12.9941 80.3613 12.6875 80.3223 12.3359C80.2871 11.9844 80.2695 11.6074 80.2695 11.2051V7.38477C80.2695 6.70898 80.3887 6.16211 80.627 5.74414C80.8691 5.32617 81.2773 5.11719 81.8516 5.11719C82.2773 5.11719 82.6035 5.20898 82.8301 5.39258C83.0605 5.57227 83.2383 5.82422 83.3633 6.14844V3.6875H85.4961V14H83.3633V13.0684C83.2461 13.3848 83.0898 13.6348 82.8945 13.8184C82.7031 14.002 82.4238 14.0938 82.0566 14.0938ZM82.8594 12.4531C83.0586 12.4531 83.1914 12.373 83.2578 12.2129C83.3281 12.0527 83.3633 11.7656 83.3633 11.3516V7.6543C83.3633 7.44727 83.332 7.24414 83.2695 7.04492C83.2109 6.8418 83.0781 6.74023 82.8711 6.74023C82.6445 6.74023 82.502 6.83594 82.4434 7.02734C82.3848 7.21875 82.3555 7.42773 82.3555 7.6543V11.3516C82.3555 12.0859 82.5234 12.4531 82.8594 12.4531Z" fill="black"/>
<rect y="6" width="22" height="5.45455" rx="1" fill="#93E9F4"/>
<rect y="12.5454" width="22" height="5.45455" rx="1" fill="#93E9F4"/>
<path fill-rule="evenodd" clip-rule="evenodd" d="M6 0C4.34315 0 3 1.34315 3 3V12C3 13.6569 4.34315 15 6 15H22C23.1104 15 24.0799 14.3967 24.5987 13.5H28.5L25 10.7778V3C25 1.34315 23.6569 0 22 0H6Z" fill="#4286F5"/>
<path d="M18 7.5L11.25 11.3971L11.25 3.60289L18 7.5Z" fill="white"/>
</svg>
