<svg  viewBox="0 0 24 24" fill="none" xmlns="http://www.w3.org/2000/svg">
<path d="M12 15.1998C13.7673 15.1998 15.2 13.7671 15.2 11.9998C15.2 10.2325 13.7673 8.7998 12 8.7998C10.2327 8.7998 8.79999 10.2325 8.79999 11.9998C8.79999 13.7671 10.2327 15.1998 12 15.1998Z" fill="white"/>
<path d="M9 2L7.17 4H4C2.9 4 2 4.9 2 6V18C2 19.1 2.9 20 4 20H20C21.1 20 22 19.1 22 18V6C22 4.9 21.1 4 20 4H16.83L15 2H9ZM12 17C9.24 17 7 14.76 7 12C7 9.24 9.24 7 12 7C14.76 7 17 9.24 17 12C17 14.76 14.76 17 12 17Z" fill="white"/>
</svg>
